<svg width="117" height="21" viewBox="0 0 117 21" fill="none" xmlns="http://www.w3.org/2000/svg">
<path d="M4.84627 4.18V8.156H11.2583V11.852H4.84627V16.164H12.0983V20H0.0582657V0.343999H12.0983V4.18H4.84627ZM14.2547 12.16C14.2547 10.5547 14.5534 9.14533 15.1507 7.932C15.7667 6.71867 16.5974 5.78533 17.6427 5.132C18.688 4.47867 19.8547 4.152 21.1427 4.152C22.244 4.152 23.2054 4.376 24.0267 4.824C24.8667 5.272 25.5107 5.86 25.9587 6.588V4.376H30.7467V20H25.9587V17.788C25.492 18.516 24.8387 19.104 23.9987 19.552C23.1774 20 22.216 20.224 21.1147 20.224C19.8454 20.224 18.688 19.8973 17.6427 19.244C16.5974 18.572 15.7667 17.6293 15.1507 16.416C14.5534 15.184 14.2547 13.7653 14.2547 12.16ZM25.9587 12.188C25.9587 10.9933 25.6227 10.0507 24.9507 9.36C24.2974 8.66933 23.4947 8.324 22.5427 8.324C21.5907 8.324 20.7787 8.66933 20.1067 9.36C19.4534 10.032 19.1267 10.9653 19.1267 12.16C19.1267 13.3547 19.4534 14.3067 20.1067 15.016C20.7787 15.7067 21.5907 16.052 22.5427 16.052C23.4947 16.052 24.2974 15.7067 24.9507 15.016C25.6227 14.3253 25.9587 13.3827 25.9587 12.188ZM54.1466 4.208C56.0879 4.208 57.6279 4.796 58.7666 5.972C59.9239 7.148 60.5026 8.78133 60.5026 10.872V20H55.7426V11.516C55.7426 10.508 55.4719 9.73333 54.9306 9.192C54.4079 8.632 53.6799 8.352 52.7466 8.352C51.8133 8.352 51.0759 8.632 50.5346 9.192C50.0119 9.73333 49.7506 10.508 49.7506 11.516V20H44.9906V11.516C44.9906 10.508 44.7199 9.73333 44.1786 9.192C43.6559 8.632 42.9279 8.352 41.9946 8.352C41.0613 8.352 40.3239 8.632 39.7826 9.192C39.2599 9.73333 38.9986 10.508 38.9986 11.516V20H34.2106V4.376H38.9986V6.336C39.4839 5.68267 40.1186 5.16933 40.9026 4.796C41.6866 4.404 42.5733 4.208 43.5626 4.208C44.7386 4.208 45.7839 4.46 46.6986 4.964C47.6319 5.468 48.3599 6.18667 48.8826 7.12C49.4239 6.26133 50.1613 5.56133 51.0946 5.02C52.0279 4.47867 53.0453 4.208 54.1466 4.208ZM70.9632 20.224C69.4326 20.224 68.0512 19.8973 66.8192 19.244C65.6059 18.5907 64.6446 17.6573 63.9352 16.444C63.2446 15.2307 62.8992 13.812 62.8992 12.188C62.8992 10.5827 63.2539 9.17333 63.9632 7.96C64.6726 6.728 65.6432 5.78533 66.8752 5.132C68.1072 4.47867 69.4886 4.152 71.0192 4.152C72.5499 4.152 73.9312 4.47867 75.1632 5.132C76.3952 5.78533 77.3659 6.728 78.0752 7.96C78.7846 9.17333 79.1392 10.5827 79.1392 12.188C79.1392 13.7933 78.7752 15.212 78.0472 16.444C77.3379 17.6573 76.3579 18.5907 75.1072 19.244C73.8752 19.8973 72.4939 20.224 70.9632 20.224ZM70.9632 16.08C71.8779 16.08 72.6526 15.744 73.2872 15.072C73.9406 14.4 74.2672 13.4387 74.2672 12.188C74.2672 10.9373 73.9499 9.976 73.3152 9.304C72.6992 8.632 71.9339 8.296 71.0192 8.296C70.0859 8.296 69.3112 8.632 68.6952 9.304C68.0792 9.95733 67.7712 10.9187 67.7712 12.188C67.7712 13.4387 68.0699 14.4 68.6672 15.072C69.2832 15.744 70.0486 16.08 70.9632 16.08ZM91.1994 4.208C93.0287 4.208 94.4847 4.80533 95.5674 6C96.6687 7.176 97.2194 8.8 97.2194 10.872V20H92.4594V11.516C92.4594 10.4707 92.1887 9.65867 91.6474 9.08C91.106 8.50133 90.378 8.212 89.4634 8.212C88.5487 8.212 87.8207 8.50133 87.2794 9.08C86.738 9.65867 86.4674 10.4707 86.4674 11.516V20H81.6794V4.376H86.4674V6.448C86.9527 5.75733 87.606 5.216 88.4274 4.824C89.2487 4.41333 90.1727 4.208 91.1994 4.208ZM110.067 4.208C111.896 4.208 113.352 4.80533 114.435 6C115.536 7.176 116.087 8.8 116.087 10.872V20H111.327V11.516C111.327 10.4707 111.056 9.65867 110.515 9.08C109.973 8.50133 109.245 8.212 108.331 8.212C107.416 8.212 106.688 8.50133 106.147 9.08C105.605 9.65867 105.335 10.4707 105.335 11.516V20H100.547V4.376H105.335V6.448C105.82 5.75733 106.473 5.216 107.295 4.824C108.116 4.41333 109.04 4.208 110.067 4.208Z" fill="#F2B006"/>
</svg>
