<svg width="227" height="22" viewBox="0 0 227 22" fill="none" xmlns="http://www.w3.org/2000/svg">
<path d="M15.9496 7.14C15.4456 6.16933 14.7456 5.44133 13.8496 4.956C12.9536 4.452 11.9176 4.2 10.7416 4.2C9.45363 4.2 8.30563 4.48933 7.29763 5.068C6.28963 5.64667 5.49629 6.468 4.91763 7.532C4.35763 8.596 4.07763 9.828 4.07763 11.228C4.07763 12.628 4.35763 13.8693 4.91763 14.952C5.49629 16.016 6.28963 16.8373 7.29763 17.416C8.30563 17.9947 9.45363 18.284 10.7416 18.284C12.4776 18.284 13.887 17.7987 14.9696 16.828C16.0523 15.8573 16.715 14.5413 16.9576 12.88H9.64963V10.332H20.3736V12.824C20.1683 14.336 19.627 15.7267 18.7496 16.996C17.891 18.2653 16.7616 19.2827 15.3616 20.048C13.9803 20.7947 12.4403 21.168 10.7416 21.168C8.91229 21.168 7.24163 20.748 5.72963 19.908C4.21763 19.0493 3.01363 17.864 2.11763 16.352C1.24029 14.84 0.801625 13.132 0.801625 11.228C0.801625 9.324 1.24029 7.616 2.11763 6.104C3.01363 4.592 4.21763 3.416 5.72963 2.576C7.26029 1.71733 8.93096 1.288 10.7416 1.288C12.8136 1.288 14.6523 1.80133 16.2576 2.828C17.8816 3.836 19.0576 5.27333 19.7856 7.14H15.9496ZM37.6619 12.908C37.6619 13.4867 37.6245 14.0093 37.5499 14.476H25.7619C25.8552 15.708 26.3125 16.6973 27.1339 17.444C27.9552 18.1907 28.9632 18.564 30.1579 18.564C31.8752 18.564 33.0885 17.8453 33.7979 16.408H37.2419C36.7752 17.8267 35.9259 18.9933 34.6939 19.908C33.4805 20.804 31.9685 21.252 30.1579 21.252C28.6832 21.252 27.3579 20.9253 26.1819 20.272C25.0245 19.6 24.1099 18.6667 23.4379 17.472C22.7845 16.2587 22.4579 14.8587 22.4579 13.272C22.4579 11.6853 22.7752 10.2947 23.4099 9.1C24.0632 7.88667 24.9685 6.95333 26.1259 6.3C27.3019 5.64667 28.6459 5.32 30.1579 5.32C31.6139 5.32 32.9112 5.63733 34.0499 6.272C35.1885 6.90667 36.0752 7.80267 36.7099 8.96C37.3445 10.0987 37.6619 11.4147 37.6619 12.908ZM34.3299 11.9C34.3112 10.724 33.8912 9.78133 33.0699 9.072C32.2485 8.36267 31.2312 8.008 30.0179 8.008C28.9165 8.008 27.9739 8.36267 27.1899 9.072C26.4059 9.76267 25.9392 10.7053 25.7899 11.9H34.3299ZM44.5271 8.176V16.716C44.5271 17.2947 44.6578 17.7147 44.9191 17.976C45.1991 18.2187 45.6658 18.34 46.3191 18.34H48.2791V21H45.7591C44.3218 21 43.2205 20.664 42.4551 19.992C41.6898 19.32 41.3071 18.228 41.3071 16.716V8.176H39.4871V5.572H41.3071V1.736H44.5271V5.572H48.2791V8.176H44.5271ZM62.2185 8.176V16.716C62.2185 17.2947 62.3492 17.7147 62.6105 17.976C62.8905 18.2187 63.3572 18.34 64.0105 18.34H65.9705V21H63.4505C62.0132 21 60.9119 20.664 60.1465 19.992C59.3812 19.32 58.9985 18.228 58.9985 16.716V8.176H57.1785V5.572H58.9985V1.736H62.2185V5.572H65.9705V8.176H62.2185ZM75.6045 21.252C74.1485 21.252 72.8325 20.9253 71.6565 20.272C70.4805 19.6 69.5565 18.6667 68.8845 17.472C68.2125 16.2587 67.8765 14.8587 67.8765 13.272C67.8765 11.704 68.2218 10.3133 68.9125 9.1C69.6032 7.88667 70.5458 6.95333 71.7405 6.3C72.9352 5.64667 74.2698 5.32 75.7445 5.32C77.2192 5.32 78.5538 5.64667 79.7485 6.3C80.9432 6.95333 81.8858 7.88667 82.5765 9.1C83.2672 10.3133 83.6125 11.704 83.6125 13.272C83.6125 14.84 83.2578 16.2307 82.5485 17.444C81.8392 18.6573 80.8685 19.6 79.6365 20.272C78.4232 20.9253 77.0792 21.252 75.6045 21.252ZM75.6045 18.48C76.4258 18.48 77.1912 18.284 77.9005 17.892C78.6285 17.5 79.2165 16.912 79.6645 16.128C80.1125 15.344 80.3365 14.392 80.3365 13.272C80.3365 12.152 80.1218 11.2093 79.6925 10.444C79.2632 9.66 78.6938 9.072 77.9845 8.68C77.2752 8.288 76.5098 8.092 75.6885 8.092C74.8672 8.092 74.1018 8.288 73.3925 8.68C72.7018 9.072 72.1512 9.66 71.7405 10.444C71.3298 11.2093 71.1245 12.152 71.1245 13.272C71.1245 14.9333 71.5445 16.2213 72.3845 17.136C73.2432 18.032 74.3165 18.48 75.6045 18.48ZM100.145 13.3L107.257 21H102.945L97.2334 14.364V21H94.0414V0.28H97.2334V12.32L102.833 5.572H107.257L100.145 13.3ZM117.329 5.32C118.543 5.32 119.625 5.572 120.577 6.076C121.548 6.58 122.304 7.32667 122.845 8.316C123.387 9.30533 123.657 10.5 123.657 11.9V21H120.493V12.376C120.493 10.9947 120.148 9.94 119.457 9.212C118.767 8.46533 117.824 8.092 116.629 8.092C115.435 8.092 114.483 8.46533 113.773 9.212C113.083 9.94 112.737 10.9947 112.737 12.376V21H109.545V5.572H112.737V7.336C113.26 6.70133 113.923 6.20667 114.725 5.852C115.547 5.49733 116.415 5.32 117.329 5.32ZM134.421 21.252C132.965 21.252 131.649 20.9253 130.473 20.272C129.297 19.6 128.373 18.6667 127.701 17.472C127.029 16.2587 126.693 14.8587 126.693 13.272C126.693 11.704 127.038 10.3133 127.729 9.1C128.42 7.88667 129.362 6.95333 130.557 6.3C131.752 5.64667 133.086 5.32 134.561 5.32C136.036 5.32 137.37 5.64667 138.565 6.3C139.76 6.95333 140.702 7.88667 141.393 9.1C142.084 10.3133 142.429 11.704 142.429 13.272C142.429 14.84 142.074 16.2307 141.365 17.444C140.656 18.6573 139.685 19.6 138.453 20.272C137.24 20.9253 135.896 21.252 134.421 21.252ZM134.421 18.48C135.242 18.48 136.008 18.284 136.717 17.892C137.445 17.5 138.033 16.912 138.481 16.128C138.929 15.344 139.153 14.392 139.153 13.272C139.153 12.152 138.938 11.2093 138.509 10.444C138.08 9.66 137.51 9.072 136.801 8.68C136.092 8.288 135.326 8.092 134.505 8.092C133.684 8.092 132.918 8.288 132.209 8.68C131.518 9.072 130.968 9.66 130.557 10.444C130.146 11.2093 129.941 12.152 129.941 13.272C129.941 14.9333 130.361 16.2213 131.201 17.136C132.06 18.032 133.133 18.48 134.421 18.48ZM166.304 5.572L161.516 21H158.156L155.048 9.604L151.94 21H148.58L143.764 5.572H147.012L150.232 17.976L153.508 5.572H156.84L159.976 17.92L163.168 5.572H166.304ZM194.639 5.32C195.853 5.32 196.935 5.572 197.887 6.076C198.858 6.58 199.614 7.32667 200.155 8.316C200.715 9.30533 200.995 10.5 200.995 11.9V21H197.831V12.376C197.831 10.9947 197.486 9.94 196.795 9.212C196.105 8.46533 195.162 8.092 193.967 8.092C192.773 8.092 191.821 8.46533 191.111 9.212C190.421 9.94 190.075 10.9947 190.075 12.376V21H186.911V12.376C186.911 10.9947 186.566 9.94 185.875 9.212C185.185 8.46533 184.242 8.092 183.047 8.092C181.853 8.092 180.901 8.46533 180.191 9.212C179.501 9.94 179.155 10.9947 179.155 12.376V21H175.963V5.572H179.155V7.336C179.678 6.70133 180.341 6.20667 181.143 5.852C181.946 5.49733 182.805 5.32 183.719 5.32C184.951 5.32 186.053 5.58133 187.023 6.104C187.994 6.62667 188.741 7.38267 189.263 8.372C189.73 7.43867 190.458 6.70133 191.447 6.16C192.437 5.6 193.501 5.32 194.639 5.32ZM219.197 12.908C219.197 13.4867 219.16 14.0093 219.085 14.476H207.297C207.39 15.708 207.848 16.6973 208.669 17.444C209.49 18.1907 210.498 18.564 211.693 18.564C213.41 18.564 214.624 17.8453 215.333 16.408H218.777C218.31 17.8267 217.461 18.9933 216.229 19.908C215.016 20.804 213.504 21.252 211.693 21.252C210.218 21.252 208.893 20.9253 207.717 20.272C206.56 19.6 205.645 18.6667 204.973 17.472C204.32 16.2587 203.993 14.8587 203.993 13.272C203.993 11.6853 204.31 10.2947 204.945 9.1C205.598 7.88667 206.504 6.95333 207.661 6.3C208.837 5.64667 210.181 5.32 211.693 5.32C213.149 5.32 214.446 5.63733 215.585 6.272C216.724 6.90667 217.61 7.80267 218.245 8.96C218.88 10.0987 219.197 11.4147 219.197 12.908ZM215.865 11.9C215.846 10.724 215.426 9.78133 214.605 9.072C213.784 8.36267 212.766 8.008 211.553 8.008C210.452 8.008 209.509 8.36267 208.725 9.072C207.941 9.76267 207.474 10.7053 207.325 11.9H215.865ZM226.342 1.54L225.978 15.12H223.318L222.954 1.54H226.342ZM224.746 21.196C224.168 21.196 223.682 21 223.29 20.608C222.898 20.216 222.702 19.7307 222.702 19.152C222.702 18.5733 222.898 18.088 223.29 17.696C223.682 17.304 224.168 17.108 224.746 17.108C225.306 17.108 225.782 17.304 226.174 17.696C226.566 18.088 226.762 18.5733 226.762 19.152C226.762 19.7307 226.566 20.216 226.174 20.608C225.782 21 225.306 21.196 224.746 21.196Z" fill="#F2B006"/>
</svg>
